<?xml version="1.0" standalone="no"?><!DOCTYPE svg PUBLIC "-//W3C//DTD SVG 1.1//EN" "http://www.w3.org/Graphics/SVG/1.1/DTD/svg11.dtd"><svg t="1561891921530" class="icon" viewBox="0 0 1026 1024" version="1.1" xmlns="http://www.w3.org/2000/svg" p-id="4130" xmlns:xlink="http://www.w3.org/1999/xlink" width="200.390625" height="200"><defs><style type="text/css"></style></defs><path d="M978.065067 119.466667h-8.533334L35.131733 332.8C5.265067 337.066667-11.8016 379.733333 9.531733 405.333333l213.333334 187.733334v234.666666c0 4.266667 4.266667 12.8 8.533333 12.8h8.533333c4.266667 0 8.533333 0 8.533334-4.266666l132.266666-106.666667V725.333333l166.4 149.333334c8.533333 12.8 21.333333 17.066667 34.133334 17.066666 17.066667 0 34.133333-8.533333 42.666666-29.866666L1024.9984 174.933333c8.533333-25.6-12.8-55.466667-46.933333-55.466666z m-725.333334 678.4v-179.2l102.4 93.866666-102.4 85.333334zM995.131733 166.4L598.331733 853.333333v4.266667c-4.266667 8.533333-8.533333 8.533333-12.8 8.533333-4.266667 0-8.533333 0-12.8-4.266666l-298.666666-264.533334L640.9984 371.2c8.533333-4.266667 8.533333-12.8 4.266667-21.333333 0-8.533333-12.8-8.533333-17.066667-4.266667l-384 226.133333L35.131733 384c-4.266667-4.266667-4.266667-12.8 0-12.8 0-4.266667 4.266667-8.533333 12.8-8.533333l930.133334-213.333334h4.266666c8.533333 0 12.8 4.266667 12.8 8.533334v8.533333z" fill="#2c2c2c" p-id="4131"></path></svg>