<?xml version="1.0" standalone="no"?><!DOCTYPE svg PUBLIC "-//W3C//DTD SVG 1.1//EN" "http://www.w3.org/Graphics/SVG/1.1/DTD/svg11.dtd"><svg t="1561884256922" class="icon" viewBox="0 0 1024 1024" version="1.1" xmlns="http://www.w3.org/2000/svg" p-id="5179" xmlns:xlink="http://www.w3.org/1999/xlink" width="200" height="200"><defs><style type="text/css"></style></defs><path d="M836.6 160H615.6c-15 0-27.4 12.2-27.4 27.4v0.4c0 15 12.2 27.4 27.4 27.4h153L215.2 768.6v-153c0-15-12.2-27.4-27.4-27.4h-0.4c-15 0-27.4 12.2-27.4 27.4v221c0 15 12.2 27.4 27.4 27.4h221c15 0 27.4-12.2 27.4-27.4v-0.4c0-15-12.2-27.4-27.4-27.4h-153l553.4-553.4v153c0 15 12.2 27.4 27.4 27.4h0.4c15 0 27.4-12.2 27.4-27.4V187.4c0-15.2-12.2-27.4-27.4-27.4z" p-id="5180"></path></svg>